{"title":"Escape From New York Risk - The Movie.avi","uid":10020155,"size":1287270330,"categoryP":"video","categoryS":"movies","magnet":"?xt=urn:btih:76717320cd6b57484a5c25df614226fbe4fea33a&amp;dn=Escape+From+New+York+Risk+-+The+Movie.avi&amp;tr=udp%3A%2F%2Ftracker.openbittorrent.com%3A80&amp;tr=udp%3A%2F%2Fopen.demonii.com%3A1337&amp;tr=udp%3A%2F%2Ftracker.coppersurfer.tk%3A6969&amp;tr=udp%3A%2F%2Fexodus.desync.com%3A6969","seeders":1,"leechers":1,"uploader":"GM_CSH","files":-1,"time":1398193630,"description":"Escape From New York Risk - The Movie 720p Avi HD\n\n\nEscape From New York The Classic Movie- Reduxed By me, thats what i am calling these, i have a following for them on vimeo and ive been tinkering with video editing for years and music. I took Escape from new york, gave it a new story and resubtitled it. Its gritty, funny and its very different, it centers around the players from a game called risk 2 at warzone. Being a DJ i used many classic songs from across the board from the sisters of mercy to flo rida with each scene, and the music is what makes it what it is. If its for you, and you can give it a shot ive made a series of these and this is the first in a series of 7 reduxes which together make an awesome series. You Tube wont let me have it, Vimeo took my premium account down, yet i made something new so here it is, enjoy GM_CSH\n\nFile Info Below\n\nMovieEscape From New York Risk - The Movie.avi\nFormat                                   : AVI\nFormat/Info                              : Audio Video Interleave\nFile size                                : 1.20 GiB\nDuration                                 : 50mn 47s\nOverall bit rate                         : 3 379 Kbps\nWriting library                          : MPlayer\n\nVideo\nID                                       : 0\nFormat                                   : MPEG-4 Visual\nFormat profile                           : Simple@L1\nFormat settings, BVOP                    : No\nFormat settings, QPel                    : No\nFormat settings, GMC                     : No warppoints\nFormat settings, Matrix                  : Default (H.263)\nCodec ID                                 : DX50\nCodec ID/Hint                            : DivX 5\nDuration                                 : 50mn 47s\nBit rate                                 : 3 143 Kbps\nWidth                                    : 1 280 pixels\nHeight                                   : 720 pixels\nDisplay aspect ratio                     : 16:9\nFrame rate                               : 24.000 fps\nColor space                              : YUV\nChroma subsampling                       : 4:2:0\nBit depth                                : 8 bits\nScan type                                : Interlaced\nScan order                               : Top Field First\nCompression mode                         : Lossy\nBits/(Pixel*Frame)                       : 0.142\nStream size                              : 1.12 GiB (93%)\nWriting library                          : Lavc52.30.1\n\nAudio\nID                                       : 1\nFormat                                   : MPEG Audio\nFormat version                           : Version 1\nFormat profile                           : Layer 3\nMode                                     : Joint stereo\nCodec ID                                 : 55\nCodec ID/Hint                            : MP3\nDuration                                 : 50mn 46s\nBit rate mode                            : Constant\nBit rate                                 : 224 Kbps\nChannel(s)                               : 2 channels\nSampling rate                            : 44.1 KHz\nCompression mode                         : Lossy\nStream size                              : 81.4 MiB (7%)\nAlignment                                : Aligned on interleaves\nInterleave, duration                     : 26 ms (0.63 video frame)\nInterleave, preload duration             : 809 ms\nWriting library                          : LAME3.98.2","torrent":{"xt":"urn:btih:76717320cd6b57484a5c25df614226fbe4fea33a","amp;dn":"Escape+From+New+York+Risk+-+The+Movie.avi","amp;tr":["udp%3A%2F%2Ftracker.openbittorrent.com%3A80","udp%3A%2F%2Fopen.demonii.com%3A1337","udp%3A%2F%2Ftracker.coppersurfer.tk%3A6969","udp%3A%2F%2Fexodus.desync.com%3A6969"],"infoHash":"76717320cd6b57484a5c25df614226fbe4fea33a","infoHashBuffer":{"type":"Buffer","data":[118,113,115,32,205,107,87,72,74,92,37,223,97,66,38,251,228,254,163,58]},"announce":[],"urlList":[]}}